<?xml version="1.0" encoding="utf-8"?>
<!-- Generator: Adobe Illustrator 15.0.0, SVG Export Plug-In . SVG Version: 6.00 Build 0)  -->
<!DOCTYPE svg PUBLIC "-//W3C//DTD SVG 1.1//EN" "http://www.w3.org/Graphics/SVG/1.1/DTD/svg11.dtd">
<svg version="1.1" id="Layer_1" xmlns="http://www.w3.org/2000/svg" xmlns:xlink="http://www.w3.org/1999/xlink" x="0px" y="0px" width="100%" height="100%" position="fixed" top="0" left="0" bottom="0" right="0" viewBox="-79 -560 890 1361" enable-background="new -79 -560 890 1361" xml:space="preserve">
<g>
	<path fill="#28717E" d="M810.396-160.465l0.369,1.733l-46.683,46.679l21.105,41.564L658.569,33.106c0,0-5.755-30.056-14.069-21.742
		L576.255,72.87l-20.127,20.057h-2.129l-13.086,11.793l31.974,31.975l-8.952,26.853l-126.611,39.646h-86.966v-19.185l-124.051-24.3
		l-16.625-44.762l-56.271,8.952l-22.014-40.357l-2.523-0.329l-30.457,30.458l-80.572-7.676l-20.46-20.463l-74.181-12.786
		c0,0,0.043-0.033,0.107-0.082l-1.811,0.377v749.561h890v-984.167L810.396-160.465z"/>
	<path fill="#A0CA10" stroke="#A0CA10" stroke-width="4.0007" stroke-linecap="round" stroke-linejoin="round" d="M-76.797,72.747
		c0,0,62.668-47.316,75.455-75.451h35.808v-61.388l35.168-35.17L34.466-232.907l35.807,23.019h44.761l-26.219-26.219l5.757-30.052
		l43.483,19.182l11.512,33.252l84.406,48.598l61.386-21.742l-23.017-62.667l-48.598-10.23l6.395-25.579h34.53l23.658-23.659
		l-9.591-33.891l107.427-78.013l71.617-10.229l-11.51-53.714l-30.694-14.066l31.975-33.251l35.808,17.905l8.954-24.299h28.136
		l101.033,90.8l11.515,58.829l-47.961,47.957l42.844,104.23l112.546,40.924l57.551-23.017l12.789,60.108l-46.681,46.68
		l21.104,41.563L658.569,33.106c0,0-5.755-30.056-14.069-21.742l-103.587,93.356l31.974,31.974l-8.952,26.853l-126.611,39.646
		h-86.966V184.01l-124.05-24.3l-16.626-44.761l-56.271,8.951L130.39,81.697l-31.973,31.974l-80.571-7.676L-2.616,85.532
		L-76.797,72.747z"/>
	<circle fill="#C1EB2E" cx="228.936" cy="18.121" r="1.777"/>
	<g enable-background="new    ">
		<path fill="#C1EB2E" d="M302.903,130.823v4.061h-0.812v-2.622l-0.812,0.999l-0.812-0.999v2.622h-1.624v-4.061h1.422l1.015,1.218
			l1.016-1.218H302.903z"/>
		<path fill="#C1EB2E" d="M305.963,134.6h-0.825l-0.075,0.284h-1.462l0.975-3.248h1.301l0.974,3.248h-0.812L305.963,134.6z
			 M305.759,133.869l-0.208-0.772l-0.209,0.772H305.759z"/>
		<path fill="#C1EB2E" d="M310.68,133.625h-0.975l0.975,1.258h-0.853l-0.976-1.258h-0.04v1.258h-1.381v-3.249h3.249V133.625
			L310.68,133.625z M309.949,132.569c0,0,0-0.203-0.203-0.203h-0.934v0.528h0.934c0.203,0,0.203-0.203,0.203-0.203V132.569z"/>
		<path fill="#C1EB2E" d="M313.977,133.584h-2.396v-1.949h2.924v0.73h-1.421c0,0-0.203,0-0.203,0.203v0.082c0,0,0,0.203,0.203,0.203
			h1.746v2.03h-3.249v-0.894h2.396c0,0,0.203,0,0.203-0.203C314.18,133.788,314.18,133.584,313.977,133.584z"/>
		<path fill="#C1EB2E" d="M318.95,133.828v1.056h-3.25v-3.248h2.6v0.73h-1.218v0.365h1.543v0.731h-1.543v0.366L318.95,133.828
			L318.95,133.828z"/>
		<path fill="#C1EB2E" d="M321.086,134.884h-1.381v-3.248h1.381V134.884z"/>
		<path fill="#C1EB2E" d="M322.016,131.635h1.381v2.518h1.868v0.73h-3.249V131.635L322.016,131.635z"/>
		<path fill="#C1EB2E" d="M325.788,131.635h1.381v2.518h1.867v0.73h-3.248V131.635L325.788,131.635z"/>
		<path fill="#C1EB2E" d="M332.809,133.828v1.056h-3.249v-3.248h2.599v0.73h-1.218v0.365h1.543v0.731h-1.543v0.366L332.809,133.828
			L332.809,133.828z"/>
	</g>
	<g>
		<path fill="#C1EB2E" d="M420.309-31.792h-3.376v-3.553h3.376c0.177,0,0.177,0.178,0.177,0.178v3.198
			C420.485-31.969,420.485-31.792,420.309-31.792z M419.775-34.457c0,0,0-0.178-0.178-0.178h-1.244v1.777h1.244
			c0,0,0.178,0,0.178-0.178V-34.457z"/>
		<path fill="#C1EB2E" d="M422.608-31.792H421.4v-2.843h1.208V-31.792z"/>
		<path fill="#C1EB2E" d="M426.263-33.355v1.563h-2.843v-2.843h2.274v0.64h-0.889c0,0-0.178,0-0.178,0.178v0.924
			c0,0,0,0.178,0.178,0.178h0.817v-0.64H426.263z"/>
		<path fill="#C1EB2E" d="M429.674-34.634v2.842h-0.64v-1.136l-0.853-0.747v1.883h-1.209v-2.843h1.067l0.994,0.853v-0.853H429.674
			L429.674-34.634z"/>
		<path fill="#C1EB2E" d="M433.329-32.716v0.924h-2.843v-2.843h2.273v0.64h-1.065v0.32h1.35v0.64h-1.35v0.32L433.329-32.716
			L433.329-32.716z"/>
	</g>
	<g enable-background="new    ">
		<path fill="#C1EB2E" d="M550.46,33.127v3.553h-0.71v-1.421l-1.244-1.066v2.487h-1.421v-3.553h1.243l1.422,1.243v-1.243
			L550.46,33.127L550.46,33.127z"/>
		<path fill="#C1EB2E" d="M552.584,36.68h-1.208v-2.843h1.208V36.68z"/>
		<path fill="#C1EB2E" d="M553.396,33.837h2.273v0.64h-0.888c0,0-0.179,0-0.179,0.178v0.923c0,0,0,0.178,0.179,0.178h1.456v0.923
			h-2.843L553.396,33.837L553.396,33.837z"/>
		<path fill="#C1EB2E" d="M559.691,35.756v0.923h-2.843v-2.843h2.274v0.64h-1.066v0.32h1.35v0.64h-1.35v0.32H559.691z"/>
	</g>
	<g enable-background="new    ">
		<path fill="#C1EB2E" d="M379.954,148.834v0.711h-1.243v2.842h-1.422v-2.842h-1.243v-0.711H379.954z"/>
		<path fill="#C1EB2E" d="M383.305,149.545v2.843h-2.844v-2.843H383.305z M382.665,150.362c0,0,0-0.178-0.178-0.178h-0.64
			c0,0-0.178,0-0.178,0.178v0.924c0,0,0,0.178,0.178,0.178h0.64c0,0,0.178,0,0.178-0.178V150.362z"/>
		<path fill="#C1EB2E" d="M386.96,149.545v2.843h-2.843v-2.843h1.208v1.741c0,0,0,0.178,0.178,0.178h0.604c0,0,0.178,0,0.178-0.178
			v-1.741H386.96z"/>
		<path fill="#C1EB2E" d="M387.772,149.545h1.208v2.203h1.634v0.64h-2.842V149.545z"/>
		<path fill="#C1EB2E" d="M393.914,149.545v2.843h-2.843v-2.843H393.914z M393.274,150.362c0,0,0-0.178-0.178-0.178h-0.64
			c0,0-0.178,0-0.178,0.178v0.924c0,0,0,0.178,0.178,0.178h0.64c0,0,0.178,0,0.178-0.178V150.362z"/>
		<path fill="#C1EB2E" d="M397.427,149.545v2.843h-0.64v-1.137l-0.853-0.747v1.883h-1.208v-2.843h1.065l0.996,0.853v-0.853H397.427z
			"/>
	</g>
	<g>
		<path fill="#C1EB2E" d="M230.131,14.196h-1.208l-0.106,0.356h-1.421l1.066-3.553h1.421l1.066,3.553h-0.71L230.131,14.196z
			 M229.919,13.486l-0.391-1.304l-0.391,1.304H229.919z"/>
		<path fill="#C1EB2E" d="M233.283,11.709h0.711l-0.854,2.842h-1.137l-0.853-2.842h1.28l0.426,1.563L233.283,11.709z"/>
		<path fill="#C1EB2E" d="M235.709,14.552h-1.208v-2.843h1.208V14.552z"/>
		<path fill="#C1EB2E" d="M239.363,12.988v1.564h-2.842v-2.843h2.273v0.639h-0.888c0,0-0.178,0-0.178,0.178v0.924
			c0,0,0,0.178,0.178,0.178h0.817v-0.64H239.363L239.363,12.988z"/>
		<path fill="#C1EB2E" d="M242.773,11.709v2.842h-0.64v-1.137l-0.852-0.747v1.884h-1.208v-2.843h1.066l0.995,0.853v-0.853H242.773
			L242.773,11.709z"/>
		<path fill="#C1EB2E" d="M246.427,11.709v2.842h-2.842v-2.842H246.427z M245.788,12.526c0,0,0-0.178-0.178-0.178h-0.64
			c0,0-0.177,0-0.177,0.178v0.924c0,0,0,0.178,0.177,0.178h0.64c0,0,0.178,0,0.178-0.178V12.526z"/>
		<path fill="#C1EB2E" d="M249.939,11.709v2.842H249.3v-1.137l-0.853-0.747v1.884h-1.208v-2.843h1.065l0.995,0.853v-0.853H249.939
			L249.939,11.709z"/>
	</g>
	<circle fill="#C1EB2E" cx="377.822" cy="156.602" r="1.777"/>
	<circle fill="#C1EB2E" cx="300.711" cy="139.294" r="2.03"/>
	<circle fill="#C1EB2E" cx="418.71" cy="-27.165" r="1.777"/>
	<circle fill="#C1EB2E" cx="548.862" cy="41.666" r="1.777"/>
</g>
</svg>
